<svg width="400" viewBox="0 0 400 580" xmlns="http://www.w3.org/2000/svg">

  <rect x="10" y="10" width="380" height="560" rx="12" fill="#111111" stroke="#444444" stroke-width="1.5"/>
  <rect x="20" y="20" width="360" height="540" rx="8" fill="#1a1a1a" stroke="#333333" stroke-width="0.5"/>

  <rect x="28" y="28" width="344" height="36" rx="4" fill="#111111"/>
  <text x="40" y="51" font-family="Arial, Helvetica, sans-serif" font-size="14" font-weight="600" fill="#f0f0f0">&lt;Card Name&gt;</text>
  <text x="360" y="51" font-family="Arial, Helvetica, sans-serif" font-size="11" font-weight="400" fill="#888888" text-anchor="end">&lt;mana&gt;</text>

  <rect x="28" y="68" width="344" height="2" rx="1" fill="#333333"/>

  <rect x="28" y="74" width="344" height="168" rx="4" fill="#2a2a2a" stroke="#333333" stroke-width="0.5"/>
  <text x="200" y="148" font-family="Arial, Helvetica, sans-serif" font-size="12" font-weight="400" fill="#555555" text-anchor="middle">[ Illustration / SVG ]</text>
  <text x="200" y="166" font-family="Arial, Helvetica, sans-serif" font-size="10" font-weight="400" fill="#444444" text-anchor="middle">07-illustration / STG</text>

  <rect x="28" y="246" width="344" height="2" rx="1" fill="#333333"/>

  <rect x="28" y="252" width="344" height="24" rx="4" fill="#111111"/>
  <text x="40" y="268" font-family="Arial, Helvetica, sans-serif" font-size="10" font-weight="400" fill="#888888">Color: &lt;placeholder&gt;</text>
  <text x="360" y="268" font-family="Arial, Helvetica, sans-serif" font-size="10" font-weight="400" fill="#888888" text-anchor="end">Type: &lt;Spell | Creature | Artifact&gt;</text>

  <rect x="28" y="280" width="344" height="2" rx="1" fill="#333333"/>

  <rect x="28" y="286" width="344" height="224" rx="4" fill="#1e1e1e" stroke="#2a2a2a" stroke-width="0.5"/>

  <text x="40" y="306" font-family="Arial, Helvetica, sans-serif" font-size="10" font-weight="600" fill="#aaaaaa">Situation</text>
  <text x="40" y="320" font-family="Arial, Helvetica, sans-serif" font-size="10" font-weight="400" fill="#666666">Ausgangslage im Deck bzw. Projekt.</text>
  <rect x="40" y="328" width="316" height="0.5" fill="#2a2a2a"/>

  <text x="40" y="344" font-family="Arial, Helvetica, sans-serif" font-size="10" font-weight="600" fill="#aaaaaa">Action</text>
  <text x="40" y="358" font-family="Arial, Helvetica, sans-serif" font-size="10" font-weight="400" fill="#666666">Welcher Zug wurde gespielt.</text>
  <rect x="40" y="366" width="316" height="0.5" fill="#2a2a2a"/>

  <text x="40" y="382" font-family="Arial, Helvetica, sans-serif" font-size="10" font-weight="600" fill="#aaaaaa">Effect</text>
  <text x="40" y="396" font-family="Arial, Helvetica, sans-serif" font-size="10" font-weight="400" fill="#666666">Welche Wirkung entsteht im System.</text>
  <rect x="40" y="404" width="316" height="0.5" fill="#2a2a2a"/>

  <text x="40" y="420" font-family="Arial, Helvetica, sans-serif" font-size="10" font-weight="600" fill="#aaaaaa">Insight</text>
  <text x="40" y="434" font-family="Arial, Helvetica, sans-serif" font-size="10" font-weight="400" fill="#666666">Welche Erkenntnis bleibt aus dieser Karte.</text>
  <rect x="40" y="442" width="316" height="0.5" fill="#2a2a2a"/>

  <text x="40" y="458" font-family="Arial, Helvetica, sans-serif" font-size="10" font-weight="600" fill="#aaaaaa">Combo</text>
  <text x="40" y="472" font-family="Arial, Helvetica, sans-serif" font-size="10" font-weight="400" fill="#666666">Mit welchen Karten synergiert diese.</text>

  <rect x="28" y="514" width="344" height="2" rx="1" fill="#333333"/>

  <rect x="28" y="520" width="344" height="24" rx="4" fill="#111111"/>
  <text x="40" y="536" font-family="Arial, Helvetica, sans-serif" font-size="10" font-weight="400" fill="#888888">Damage: &lt;Impact / Wirkung&gt;</text>
  <text x="360" y="536" font-family="Arial, Helvetica, sans-serif" font-size="10" font-weight="400" fill="#888888" text-anchor="end">Life: &lt;Stabilität&gt;</text>

  <text x="28" y="558" font-family="Arial, Helvetica, sans-serif" font-size="9" font-weight="400" fill="#444444">#S102  #player/USER  #zone/&lt;general|library|hand|battlefield|graveyard|stack|exile&gt;</text>

</svg>
